<svg xmlns="http://www.w3.org/2000/svg" viewBox="0 0 1048.37 214.01"><defs><style>.cls-1{fill:#3f4cea;}</style></defs><g id="Layer_2" data-name="Layer 2"><g id="Layer_1-2" data-name="Layer 1"><path d="M427.57,210H358.42L346,157.31q-.74-2.92-2.38-10.06t-3.84-10.61a10.31,10.31,0,0,0-6.22-4.57q-10.24.36-30,.36V210H237.7V3.29Q282,0,320.38,0q34.75,0,56.34,5.67t32.37,19.39q10.79,13.71,10.79,37.5,0,22.32-10.24,34.93t-32.92,15.19v2.19q12.79,1.09,21.4,8.23a34.57,34.57,0,0,1,11.52,18.11ZM316.35,91.46q28.17,0,32.93-4.76,4.39-4.38,4.39-20.48,0-15-7.87-20.49T320,40.24q-4,0-16.46.73V91.09Q306.85,91.47,316.35,91.46Z"/><path d="M644.5,210H572.43l-40.6-77.92q-1.11-1.83-5.68-10.25a155.83,155.83,0,0,0-10.06-16.1l.32,104.58-66.17,0V1.46h65.85V96.21A83.69,83.69,0,0,0,526.89,81q4.56-8.23,5.3-9.69L571.34,1.46h69.5l-41.7,69.88c-.73,1-2.32,3.54-4.76,7.68a100.32,100.32,0,0,1-7.86,11.52,85.87,85.87,0,0,1-9,9.7,80.86,80.86,0,0,1,10.8,12.25q4.2,6,9.69,15.92Z"/><path d="M855.58,1.46v116.7q0,36.22-7.86,56.53T818.27,204.5Q796.67,214,755.34,214q-30.36,0-51.21-6.4A60.48,60.48,0,0,1,671,183.28q-12.25-17.91-12.26-50.48V1.46h65.85V118.9q0,19.4,2,29.44T736,163.71q7.31,5.31,22.31,5.3a76.8,76.8,0,0,0,17.19-1.83c5.37-1.21,9-3,11-5.48q3.3-4.39,3.29-31.83V1.46Z"/><path d="M958.19,69.87q7.88,4.39,24.7,9.52A281.58,281.58,0,0,1,1016,92.19q13,6.23,22.68,19.39t9.69,34.39q0,68-88.53,68a304.23,304.23,0,0,1-35.67-2.56,357.8,357.8,0,0,1-38.23-6.58q.73-7.69,3.11-22.5a188.31,188.31,0,0,1,4.57-22.14q12.81,1.85,38.6,4.39t39,2.56q7.68,0,9.15-1.09a9.69,9.69,0,0,0,3.47-4.94,18,18,0,0,0,1.28-6q0-7.31-7-11.15t-23.78-9.33q-20.11-6.23-33.29-12.81t-23-20.48q-9.88-13.91-9.88-36.59a73.57,73.57,0,0,1,7.31-31.64q7.32-15.55,15-21,5.85-4,24.15-7.68A175.6,175.6,0,0,1,969,.73q41,0,66.94,7.68-.36,7.34-2.37,20.13T1029.35,52l-8.41-.37q-47.57-3.28-60.73-3.29c-3.66,0-5.74.13-6.22.37A6.18,6.18,0,0,0,951.43,52a14.78,14.78,0,0,0-1.1,5.85Q950.33,65.48,958.19,69.87Z"/><path d="M114.09,163.51c-27.85,5.16-57.75-12.66-65.71-41.43-8.17-29.55,9.25-61.77,40-71.43V3.51C78.43,5.15,43.6,12.15,20.52,42.79-7.74,80.32-8.57,140.25,29.09,178.51c33.28,33.79,86.66,40.58,128.58,15.71v17.14h57.14V125.65H157.67C156.91,127.6,144.57,157.86,114.09,163.51Z"/><polygon class="cls-1" points="105.52 1.36 105.52 48.51 158.38 48.51 158.38 110.65 215.52 110.65 215.52 1.36 105.52 1.36"/></g></g></svg>